<svg width="18" height="30" viewBox="0 0 18 30" fill="none" xmlns="http://www.w3.org/2000/svg">
<g id="fridge-icon 1" clip-path="url(#clip0_1_243)">
<g id="Group">
<path id="Vector" d="M1.49902 0H15.9668C16.3794 0 16.7554 0.168457 17.0264 0.439453C17.2974 0.710449 17.4658 1.08643 17.4658 1.49902V8.74268V26.7432C17.4658 27.1558 17.2974 27.5317 17.0264 27.8027C16.7554 28.0737 16.3794 28.2422 15.9668 28.2422H14.7729V28.9062C14.7729 29.5093 14.2798 30.0024 13.6768 30.0024C13.0737 30.0024 12.5806 29.5093 12.5806 28.9062V28.2422H4.92432V28.9062C4.92432 29.5093 4.43115 30.0024 3.82812 30.0024C3.2251 30.0024 2.73193 29.5093 2.73193 28.9062V28.2422H1.49902C1.08643 28.2422 0.710449 28.0737 0.439453 27.8027C0.168457 27.5317 0 27.1558 0 26.7432V8.74268V1.49902C0 1.08643 0.168457 0.710449 0.439453 0.439453C0.710449 0.168457 1.08643 0 1.49902 0ZM2.49023 10.9595C2.49023 10.6323 2.75635 10.3662 3.0835 10.3662C3.41064 10.3662 3.67676 10.6323 3.67676 10.9595V15.9399C3.67676 16.2671 3.41064 16.5332 3.0835 16.5332C2.75635 16.5332 2.49023 16.2671 2.49023 15.9399V10.9595ZM2.49023 2.53662C2.49023 2.20947 2.75635 1.94336 3.0835 1.94336C3.41064 1.94336 3.67676 2.20947 3.67676 2.53662V6.23535C3.67676 6.5625 3.41064 6.82861 3.0835 6.82861C2.75635 6.82861 2.49023 6.5625 2.49023 6.23535V2.53662ZM1.18896 8.14697H16.2793V1.49902C16.2793 1.41357 16.2451 1.33545 16.1865 1.2793C16.1304 1.22314 16.0522 1.18652 15.9668 1.18652H1.49902C1.41357 1.18652 1.33545 1.2207 1.2793 1.2793C1.22314 1.33545 1.18652 1.41357 1.18652 1.49902V8.14697H1.18896ZM16.2769 9.33594H1.18896V26.7407C1.18896 26.8262 1.22314 26.9043 1.28174 26.9604C1.33789 27.0166 1.41602 27.0532 1.50146 27.0532H15.9668C16.0522 27.0532 16.1304 27.019 16.1865 26.9604C16.2427 26.9043 16.2793 26.8262 16.2793 26.7407V9.33594H16.2769Z" fill="white" fill-opacity="0.81"/>
</g>
</g>
<defs>
<clipPath id="clip0_1_243">
<rect width="17.4658" height="30" fill="white"/>
</clipPath>
</defs>
</svg>
